<svg width="100%" viewBox="0 0 720 990" role="img" style="display:block;outline:none;border:none;" xmlns="http://www.w3.org/2000/svg">
<title>WebSocket Message Flow</title>
<desc>WebSocket message routing through websocket_handler and process_query.</desc>
<rect x="-2" y="-2" width="724" height="994" fill="#111111"/>
<defs>
  <marker id="arrow" viewBox="0 0 10 10" refX="8" refY="5" markerWidth="6" markerHeight="6" orient="auto-start-reverse">
    <path d="M2 1L8 5L2 9" fill="none" stroke="context-stroke" stroke-width="1.5" stroke-linecap="round" stroke-linejoin="round"/>
  </marker>
</defs>
<style>
text { fill: #e0e0e0; font-family: 'Anthropic Sans', -apple-system, BlinkMacSystemFont, 'Segoe UI', sans-serif; }
text.th { fill: #ffffff; }
text.ts { fill: #b0b0b0; }
line, path { stroke: #666666; }
line.arr, path.arr { stroke: #888888; }
.c-teal rect, .c-teal circle { fill: #0a5c47; stroke: #1d9e75; }
.c-teal text.th { fill: #9fe1cb; }
.c-teal text.ts { fill: #5dcaa5; }
.c-blue rect, .c-blue circle { fill: #0c2d52; stroke: #378add; }
.c-blue text.th { fill: #b5d4f4; }
.c-blue text.ts { fill: #85b7eb; }
.c-amber rect, .c-amber circle { fill: #3d2400; stroke: #ef9f27; }
.c-amber text.th { fill: #fac775; }
.c-amber text.ts { fill: #ef9f27; }
.c-gray rect, .c-gray circle { fill: #2a2a28; stroke: #5f5e5a; }
.c-gray text.th { fill: #d3d1c7; }
.c-gray text.ts { fill: #b4b2a9; }
.c-purple rect, .c-purple circle { fill: #1a1640; stroke: #7f77dd; }
.c-purple text.th { fill: #cecbf6; }
.c-purple text.ts { fill: #afa9ec; }
.c-coral rect, .c-coral circle { fill: #3d1408; stroke: #d85a30; }
.c-coral text.th { fill: #f5c4b3; }
.c-coral text.ts { fill: #f0997b; }
.c-green rect, .c-green circle { fill: #0f2a05; stroke: #639922; }
.c-green text.th { fill: #c0dd97; }
.c-green text.ts { fill: #97c459; }
</style>
<text x="360" y="26" text-anchor="middle" font-size="16" font-weight="500" fill="#ffffff">WebSocket message flow</text>
<g class="c-amber"><rect x="30" y="44" width="12" height="12" rx="2" stroke-width="0.5"/></g>
<text class="ts" x="48" y="54">LLM involved</text>
<g class="c-teal"><rect x="148" y="44" width="12" height="12" rx="2" stroke-width="0.5"/></g>
<text class="ts" x="166" y="54">Sync / fast</text>
<g class="c-blue"><rect x="246" y="44" width="12" height="12" rx="2" stroke-width="0.5"/></g>
<text class="ts" x="264" y="54">Async task</text>
<g class="node c-gray"><rect x="210" y="66" width="280" height="44" rx="8" stroke-width="0.5"/><text class="th" x="350" y="88" text-anchor="middle" dominant-baseline="central">Browser &#x2192; WS:8765</text></g>
<line x1="350" y1="110" x2="350" y2="130" class="arr" marker-end="url(#arrow)"/>
<g class="node c-teal"><rect x="230" y="130" width="240" height="44" rx="8" stroke-width="0.5"/><text class="th" x="350" y="152" text-anchor="middle" dominant-baseline="central">Parse JSON &#x2192; message.type</text></g>
<line x1="350" y1="174" x2="350" y2="190" class="arr" marker-end="url(#arrow)"/>
<rect x="28" y="186" width="644" height="136" rx="8" fill="none" stroke="#444" stroke-width="0.5" stroke-dasharray="5 3"/>
<text class="ts" x="40" y="201">Fast / sync</text>
<g class="node c-coral"><rect x="40" y="206" width="148" height="44" rx="6" stroke-width="0.5"/><text class="th" x="114" y="222" text-anchor="middle" dominant-baseline="central">:stop</text><text class="ts" x="114" y="239" text-anchor="middle" dominant-baseline="central">cancel task now</text></g>
<g class="node c-teal"><rect x="200" y="206" width="148" height="44" rx="6" stroke-width="0.5"/><text class="th" x="274" y="222" text-anchor="middle" dominant-baseline="central">Session ops</text><text class="ts" x="274" y="239" text-anchor="middle" dominant-baseline="central">load &#xB7; new &#xB7; rename</text></g>
<g class="node c-teal"><rect x="360" y="206" width="148" height="44" rx="6" stroke-width="0.5"/><text class="th" x="434" y="222" text-anchor="middle" dominant-baseline="central">Model switch</text><text class="ts" x="434" y="239" text-anchor="middle" dominant-baseline="central">reload agent</text></g>
<g class="node c-teal"><rect x="520" y="206" width="140" height="44" rx="6" stroke-width="0.5"/><text class="th" x="590" y="222" text-anchor="middle" dominant-baseline="central">: commands</text><text class="ts" x="590" y="239" text-anchor="middle" dominant-baseline="central">handle_command()</text></g>
<g class="node c-teal"><rect x="40" y="262" width="148" height="44" rx="6" stroke-width="0.5"/><text class="th" x="114" y="278" text-anchor="middle" dominant-baseline="central">List tools</text><text class="ts" x="114" y="295" text-anchor="middle" dominant-baseline="central">resolve + filter</text></g>
<g class="node c-teal"><rect x="200" y="262" width="148" height="44" rx="6" stroke-width="0.5"/><text class="th" x="274" y="278" text-anchor="middle" dominant-baseline="central">Metrics / ping</text><text class="ts" x="274" y="295" text-anchor="middle" dominant-baseline="central">stats &#xB7; pong</text></g>
<g class="node c-teal"><rect x="360" y="262" width="148" height="44" rx="6" stroke-width="0.5"/><text class="th" x="434" y="278" text-anchor="middle" dominant-baseline="central">Sys monitor</text><text class="ts" x="434" y="295" text-anchor="middle" dominant-baseline="central">subscribe / stream</text></g>
<g class="node c-teal"><rect x="520" y="262" width="140" height="44" rx="6" stroke-width="0.5"/><text class="th" x="590" y="278" text-anchor="middle" dominant-baseline="central">Log stream</text><text class="ts" x="590" y="295" text-anchor="middle" dominant-baseline="central">WS:8766 tail</text></g>
<text class="ts" x="350" y="332" text-anchor="middle">user message</text>
<line x1="350" y1="338" x2="350" y2="356" class="arr" marker-end="url(#arrow)"/>
<rect x="60" y="352" width="570" height="350" rx="8" fill="none" stroke="#444" stroke-width="0.5" stroke-dasharray="5 3"/>
<text class="ts" x="74" y="368">process_query() &#x2014; asyncio background task</text>
<g class="node c-teal"><rect x="74" y="374" width="230" height="52" rx="8" stroke-width="0.5"/><text class="th" x="189" y="393" text-anchor="middle" dominant-baseline="central">History question?</text><text class="ts" x="189" y="410" text-anchor="middle" dominant-baseline="central">Answer directly &#x2014; no LLM</text></g>
<g class="node c-teal"><rect x="320" y="374" width="230" height="52" rx="8" stroke-width="0.5"/><text class="th" x="435" y="393" text-anchor="middle" dominant-baseline="central">Scheduling request?</text><text class="ts" x="435" y="410" text-anchor="middle" dominant-baseline="central">ScheduleParser &#xB7; confirm flow</text></g>
<path d="M550 400 L695 400 L695 928 L490 928" fill="none" stroke="#666" stroke-width="0.8" marker-end="url(#arrow)"/>
<text class="ts" x="556" y="393">yes &#x2192;</text>
<line x1="350" y1="426" x2="350" y2="446" class="arr" marker-end="url(#arrow)"/>
<text class="ts" x="362" y="438">no</text>
<g class="node c-purple"><rect x="175" y="446" width="350" height="44" rx="8" stroke-width="0.5"/><text class="th" x="350" y="468" text-anchor="middle" dominant-baseline="central">Inject persistent memory</text></g>
<line x1="350" y1="490" x2="350" y2="510" class="arr" marker-end="url(#arrow)"/>
<g class="node c-amber"><rect x="175" y="510" width="350" height="52" rx="8" stroke-width="0.5"/><text class="th" x="350" y="529" text-anchor="middle" dominant-baseline="central">&#x1F916; run_agent_fn()</text><text class="ts" x="350" y="547" text-anchor="middle" dominant-baseline="central">Full prompt loop (A2A / multi / single)</text></g>
<line x1="350" y1="562" x2="350" y2="582" class="arr" marker-end="url(#arrow)"/>
<g class="node c-teal"><rect x="175" y="582" width="350" height="44" rx="8" stroke-width="0.5"/><text class="th" x="350" y="604" text-anchor="middle" dominant-baseline="central">Scan ToolMessages for images</text></g>
<line x1="350" y1="626" x2="350" y2="646" class="arr" marker-end="url(#arrow)"/>
<g class="node c-gray"><rect x="175" y="646" width="350" height="40" rx="8" stroke-width="0.5"/><text class="th" x="350" y="666" text-anchor="middle" dominant-baseline="central">Persist to SQLite &#xB7; broadcast</text></g>
<line x1="350" y1="686" x2="350" y2="770" stroke="#666" stroke-width="0.8"/>
<line x1="130" y1="770" x2="570" y2="770" stroke="#666" stroke-width="0.8"/>
<line x1="130" y1="770" x2="130" y2="786" class="arr" marker-end="url(#arrow)"/>
<line x1="350" y1="770" x2="350" y2="786" class="arr" marker-end="url(#arrow)"/>
<line x1="570" y1="770" x2="570" y2="786" class="arr" marker-end="url(#arrow)"/>
<g class="node c-blue"><rect x="40" y="786" width="180" height="52" rx="8" stroke-width="0.5"/><text class="th" x="130" y="805" text-anchor="middle" dominant-baseline="central">assistant_message</text><text class="ts" x="130" y="822" text-anchor="middle" dominant-baseline="central">text &#xB7; image &#xB7; model</text></g>
<g class="node c-blue"><rect x="260" y="786" width="180" height="52" rx="8" stroke-width="0.5"/><text class="th" x="350" y="805" text-anchor="middle" dominant-baseline="central">complete</text><text class="ts" x="350" y="822" text-anchor="middle" dominant-baseline="central">stopped: true / false</text></g>
<g class="node c-blue"><rect x="480" y="786" width="180" height="52" rx="8" stroke-width="0.5"/><text class="th" x="570" y="805" text-anchor="middle" dominant-baseline="central">proactive result</text><text class="ts" x="570" y="822" text-anchor="middle" dominant-baseline="central">scheduled job output</text></g>
<line x1="130" y1="838" x2="130" y2="888" stroke="#666" stroke-width="0.8"/>
<line x1="350" y1="838" x2="350" y2="888" stroke="#666" stroke-width="0.8"/>
<line x1="570" y1="838" x2="570" y2="888" stroke="#666" stroke-width="0.8"/>
<line x1="130" y1="888" x2="570" y2="888" stroke="#666" stroke-width="0.8"/>
<line x1="350" y1="888" x2="350" y2="908" class="arr" marker-end="url(#arrow)"/>
<g class="node c-gray"><rect x="210" y="908" width="280" height="44" rx="8" stroke-width="0.5"/><text class="th" x="350" y="930" text-anchor="middle" dominant-baseline="central">Browser UI updated</text></g>
</svg>